<svg width="453" height="309" viewBox="0 0 453 309" fill="none" xmlns="http://www.w3.org/2000/svg">
<mask id="mask0_1_5734" style="mask-type:alpha" maskUnits="userSpaceOnUse" x="0" y="-320" width="712" height="629">
<path d="M355.625 308.807C552.031 308.807 711.25 168.043 711.25 -5.59677C711.25 -179.237 552.031 -320 355.625 -320C159.219 -320 0 -179.237 0 -5.59677C0 168.043 159.219 308.807 355.625 308.807Z" fill="url(#paint0_radial_1_5734)"/>
</mask>
<g mask="url(#mask0_1_5734)">
<g clip-path="url(#clip0_1_5734)">
<path d="M0.348423 -242.682H-0.242188V372.607H0.348423V-242.682Z" fill="white"/>
<path d="M25.993 -242.682H25.4023V372.607H25.993V-242.682Z" fill="white"/>
<path d="M51.6253 -242.682H51.0347V372.607H51.6253V-242.682Z" fill="white"/>
<path d="M77.2698 -242.682H76.6792V372.607H77.2698V-242.682Z" fill="white"/>
<path d="M102.902 -242.682H102.312V372.607H102.902V-242.682Z" fill="white"/>
<path d="M128.546 -242.682H127.956V372.607H128.546V-242.682Z" fill="white"/>
<path d="M154.191 -242.682H153.6V372.607H154.191V-242.682Z" fill="white"/>
<path d="M179.823 -242.682H179.233V372.607H179.823V-242.682Z" fill="white"/>
<path d="M205.468 -242.682H204.877V372.607H205.468V-242.682Z" fill="white"/>
<path d="M231.1 -242.682H230.509V372.607H231.1V-242.682Z" fill="white"/>
<path d="M256.745 -242.682H256.154V372.607H256.745V-242.682Z" fill="white"/>
<path d="M282.377 -242.682H281.786V372.607H282.377V-242.682Z" fill="white"/>
<path d="M308.021 -242.682H307.431V372.607H308.021V-242.682Z" fill="white"/>
<path d="M333.665 -242.682H333.074V372.607H333.665V-242.682Z" fill="white"/>
<path d="M359.298 -242.682H358.708V372.607H359.298V-242.682Z" fill="white"/>
<path d="M384.942 -242.682H384.351V372.607H384.942V-242.682Z" fill="white"/>
<path d="M410.574 -242.682H409.984V372.607H410.574V-242.682Z" fill="white"/>
<path d="M436.219 -242.682H435.628V372.607H436.219V-242.682Z" fill="white"/>
<path d="M666.97 13.4297H0.0532227V14.0196H666.97V13.4297Z" fill="white"/>
<path d="M666.97 39.0339H0.0532227V39.6239H666.97V39.0339Z" fill="white"/>
<path d="M666.97 64.6499H0.0532227V65.2399H666.97V64.6499Z" fill="white"/>
<path d="M666.97 90.2659H0.0532227V90.8558H666.97V90.2659Z" fill="white"/>
<path d="M666.97 115.87H0.0532227V116.46H666.97V115.87Z" fill="white"/>
<path d="M666.97 141.486H0.0532227V142.076H666.97V141.486Z" fill="white"/>
<path d="M666.97 167.09H0.0532227V167.68H666.97V167.09Z" fill="white"/>
<path d="M666.97 192.706H0.0532227V193.296H666.97V192.706Z" fill="white"/>
<path d="M666.97 218.322H0.0532227V218.912H666.97V218.322Z" fill="white"/>
<path d="M666.97 243.926H0.0532227V244.516H666.97V243.926Z" fill="white"/>
<path d="M666.97 269.542H0.0532227V270.132H666.97V269.542Z" fill="white"/>
<path d="M666.97 295.146H0.0532227V295.735H666.97V295.146Z" fill="white"/>
<path d="M307.725 195.137C308.906 195.137 309.863 194.181 309.863 193.001C309.863 191.822 308.906 190.865 307.725 190.865C306.545 190.865 305.587 191.822 305.587 193.001C305.587 194.181 306.545 195.137 307.725 195.137Z" fill="white"/>
<path d="M102.607 144.188C103.787 144.188 104.745 143.232 104.745 142.052C104.745 140.873 103.787 139.917 102.607 139.917C101.426 139.917 100.469 140.873 100.469 142.052C100.469 143.232 101.426 144.188 102.607 144.188Z" fill="white"/>
<path d="M333.37 146.323C335.731 146.323 337.646 144.411 337.646 142.052C337.646 139.693 335.731 137.781 333.37 137.781C331.008 137.781 329.094 139.693 329.094 142.052C329.094 144.411 331.008 146.323 333.37 146.323Z" fill="white"/>
<path d="M205.089 297.895C206.27 297.895 207.227 296.939 207.227 295.759C207.227 294.58 206.27 293.624 205.089 293.624C203.909 293.624 202.951 294.58 202.951 295.759C202.951 296.939 203.909 297.895 205.089 297.895Z" fill="white"/>
<path d="M435.841 297.895C437.021 297.895 437.979 296.939 437.979 295.759C437.979 294.58 437.021 293.624 435.841 293.624C434.66 293.624 433.703 294.58 433.703 295.759C433.703 296.939 434.66 297.895 435.841 297.895Z" fill="white"/>
</g>
</g>
<defs>
<radialGradient id="paint0_radial_1_5734" cx="0" cy="0" r="1" gradientUnits="userSpaceOnUse" gradientTransform="translate(355.625 -5.64162) scale(356 314)">
<stop stop-color="white"/>
<stop offset="1" stop-color="white" stop-opacity="0"/>
</radialGradient>
<clipPath id="clip0_1_5734">
<rect width="667.212" height="615.289" fill="white" transform="translate(-0.242676 -242.682)"/>
</clipPath>
</defs>
</svg>
