<svg width="712" height="395" viewBox="0 0 712 395" fill="none" xmlns="http://www.w3.org/2000/svg">
<g opacity="0.3">
<mask id="mask0_1_5346" style="mask-type:alpha" maskUnits="userSpaceOnUse" x="0" y="-234" width="712" height="629">
<path d="M356 394.894C552.406 394.894 711.625 254.131 711.625 80.4911C711.625 -93.149 552.406 -233.912 356 -233.912C159.594 -233.912 0.375 -93.149 0.375 80.4911C0.375 254.131 159.594 394.894 356 394.894Z" fill="url(#paint0_radial_1_5346)"/>
</mask>
<g mask="url(#mask0_1_5346)">
<g clip-path="url(#clip0_1_5346)">
<path d="M0.723423 -156.594H0.132812V458.695H0.723423V-156.594Z" fill="white"/>
<path d="M26.368 -156.594H25.7773V458.695H26.368V-156.594Z" fill="white"/>
<path d="M52.0003 -156.594H51.4097V458.695H52.0003V-156.594Z" fill="white"/>
<path d="M77.6448 -156.594H77.0542V458.695H77.6448V-156.594Z" fill="white"/>
<path d="M103.277 -156.594H102.687V458.695H103.277V-156.594Z" fill="white"/>
<path d="M128.921 -156.594H128.331V458.695H128.921V-156.594Z" fill="white"/>
<path d="M154.566 -156.594H153.975V458.695H154.566V-156.594Z" fill="white"/>
<path d="M180.198 -156.594H179.608V458.695H180.198V-156.594Z" fill="white"/>
<path d="M205.843 -156.594H205.252V458.695H205.843V-156.594Z" fill="white"/>
<path d="M231.475 -156.594H230.884V458.695H231.475V-156.594Z" fill="white"/>
<path d="M257.12 -156.594H256.529V458.695H257.12V-156.594Z" fill="white"/>
<path d="M282.752 -156.594H282.161V458.695H282.752V-156.594Z" fill="white"/>
<path d="M308.396 -156.594H307.806V458.695H308.396V-156.594Z" fill="white"/>
<path d="M334.04 -156.594H333.449V458.695H334.04V-156.594Z" fill="white"/>
<path d="M359.673 -156.594H359.083V458.695H359.673V-156.594Z" fill="white"/>
<path d="M385.317 -156.594H384.726V458.695H385.317V-156.594Z" fill="white"/>
<path d="M410.949 -156.594H410.359V458.695H410.949V-156.594Z" fill="white"/>
<path d="M436.594 -156.594H436.003V458.695H436.594V-156.594Z" fill="white"/>
<path d="M462.238 -156.594H461.648V458.695H462.238V-156.594Z" fill="white"/>
<path d="M487.871 -156.594H487.28V458.695H487.871V-156.594Z" fill="white"/>
<path d="M513.515 -156.594H512.925V458.695H513.515V-156.594Z" fill="white"/>
<path d="M539.147 -156.594H538.557V458.695H539.147V-156.594Z" fill="white"/>
<path d="M564.792 -156.594H564.201V458.695H564.792V-156.594Z" fill="white"/>
<path d="M590.424 -156.594H589.834V458.695H590.424V-156.594Z" fill="white"/>
<path d="M616.068 -156.594H615.478V458.695H616.068V-156.594Z" fill="white"/>
<path d="M641.713 -156.594H641.122V458.695H641.713V-156.594Z" fill="white"/>
<path d="M667.345 -156.594H666.754V458.695H667.345V-156.594Z" fill="white"/>
<path d="M667.345 22.6819H0.428223V23.2718H667.345V22.6819Z" fill="white"/>
<path d="M667.345 48.2975H0.428223V48.8874H667.345V48.2975Z" fill="white"/>
<path d="M667.345 73.9021H0.428223V74.4921H667.345V73.9021Z" fill="white"/>
<path d="M667.345 99.5178H0.428223V100.108H667.345V99.5178Z" fill="white"/>
<path d="M667.345 125.122H0.428223V125.712H667.345V125.122Z" fill="white"/>
<path d="M667.345 150.738H0.428223V151.328H667.345V150.738Z" fill="white"/>
<path d="M667.345 176.354H0.428223V176.944H667.345V176.354Z" fill="white"/>
<path d="M667.345 201.958H0.428223V202.548H667.345V201.958Z" fill="white"/>
<path d="M667.345 227.574H0.428223V228.164H667.345V227.574Z" fill="white"/>
<path d="M667.345 253.178H0.428223V253.768H667.345V253.178Z" fill="white"/>
<path d="M667.345 278.794H0.428223V279.384H667.345V278.794Z" fill="white"/>
<path d="M667.345 304.41H0.428223V305H667.345V304.41Z" fill="white"/>
<path d="M667.345 330.014H0.428223V330.604H667.345V330.014Z" fill="white"/>
<path d="M667.345 355.63H0.428223V356.22H667.345V355.63Z" fill="white"/>
<path d="M667.345 381.234H0.428223V381.824H667.345V381.234Z" fill="white"/>
<path d="M205.464 76.3676C206.645 76.3676 207.602 75.4114 207.602 74.232C207.602 73.0525 206.645 72.0963 205.464 72.0963C204.284 72.0963 203.326 73.0525 203.326 74.232C203.326 75.4114 204.284 76.3676 205.464 76.3676Z" fill="white"/>
<path d="M308.1 281.225C309.281 281.225 310.238 280.269 310.238 279.089C310.238 277.91 309.281 276.953 308.1 276.953C306.92 276.953 305.962 277.91 305.962 279.089C305.962 280.269 306.92 281.225 308.1 281.225Z" fill="white"/>
<path d="M436.215 78.5031C438.577 78.5031 440.491 76.5908 440.491 74.2319C440.491 71.8729 438.577 69.9606 436.215 69.9606C433.854 69.9606 431.939 71.8729 431.939 74.2319C431.939 76.5908 433.854 78.5031 436.215 78.5031Z" fill="white"/>
<path d="M102.982 230.276C104.162 230.276 105.12 229.32 105.12 228.14C105.12 226.961 104.162 226.005 102.982 226.005C101.801 226.005 100.844 226.961 100.844 228.14C100.844 229.32 101.801 230.276 102.982 230.276Z" fill="white"/>
<path d="M333.745 232.411C336.106 232.411 338.021 230.499 338.021 228.14C338.021 225.781 336.106 223.869 333.745 223.869C331.383 223.869 329.469 225.781 329.469 228.14C329.469 230.499 331.383 232.411 333.745 232.411Z" fill="white"/>
<path d="M564.496 230.276C565.677 230.276 566.634 229.32 566.634 228.14C566.634 226.961 565.677 226.005 564.496 226.005C563.316 226.005 562.358 226.961 562.358 228.14C562.358 229.32 563.316 230.276 564.496 230.276Z" fill="white"/>
<path d="M205.464 383.983C206.645 383.983 207.602 383.027 207.602 381.847C207.602 380.668 206.645 379.712 205.464 379.712C204.284 379.712 203.326 380.668 203.326 381.847C203.326 383.027 204.284 383.983 205.464 383.983Z" fill="white"/>
<path d="M436.216 383.983C437.396 383.983 438.354 383.027 438.354 381.847C438.354 380.668 437.396 379.712 436.216 379.712C435.035 379.712 434.078 380.668 434.078 381.847C434.078 383.027 435.035 383.983 436.216 383.983Z" fill="white"/>
</g>
</g>
</g>
<defs>
<radialGradient id="paint0_radial_1_5346" cx="0" cy="0" r="1" gradientUnits="userSpaceOnUse" gradientTransform="translate(356 80.4463) scale(356 314)">
<stop stop-color="white"/>
<stop offset="1" stop-color="white" stop-opacity="0"/>
</radialGradient>
<clipPath id="clip0_1_5346">
<rect width="667.212" height="615.289" fill="white" transform="translate(0.132324 -156.594)"/>
</clipPath>
</defs>
</svg>
